# xmcd CD database file
#
# Track frame offsets:
#	150
#	19700
#	37845
#
# Disc length: 764 seconds
#
# Revision: 0
# Processed by: cddbd v1.5.1PL2 Copyright (c) Steve Scherf et al.
# Submitted via: CDex 1.51
#
DISCID=1502fa03
DTITLE=Buzy - パシオン
DYEAR=2005
DGENRE=JPop
TTITLE0=パシオン
TTITLE1=泣きたい夜に聞きたい言葉
TTITLE2=パシオン (instrumental)
EXTD=YEAR: 2005
EXTT0=
EXTT1=
EXTT2=
PLAYORDER=
